<svg width="170" height="54" viewBox="0 0 170 54" fill="none" xmlns="http://www.w3.org/2000/svg">
<path d="M12.5 41.918C8.72 41.918 5.768 40.838 3.644 38.678C1.556 36.518 0.512 33.53 0.512 29.714C0.512 26.762 1.034 23.9 2.078 21.128C3.122 18.32 4.832 15.998 7.208 14.162C9.62 12.326 12.716 11.408 16.496 11.408C20.24 11.408 23.174 12.488 25.298 14.648C27.422 16.808 28.484 19.742 28.484 23.45C28.484 26.402 27.962 29.282 26.918 32.09C25.874 34.898 24.146 37.238 21.734 39.11C19.358 40.982 16.28 41.918 12.5 41.918ZM13.094 35.654C15.578 35.654 17.324 34.34 18.332 31.712C19.34 29.048 19.862 26.168 19.898 23.072C19.898 21.2 19.556 19.832 18.872 18.968C18.224 18.104 17.234 17.672 15.902 17.672C13.418 17.672 11.654 19.004 10.61 21.668C9.602 24.332 9.098 27.194 9.098 30.254C9.098 32.126 9.422 33.494 10.07 34.358C10.718 35.222 11.726 35.654 13.094 35.654ZM35.2998 12.326H42.6978V15.512C45.2898 12.776 48.0978 11.408 51.1218 11.408C54.0018 11.408 56.1978 12.38 57.7098 14.324C59.2218 16.232 59.9778 18.986 59.9778 22.586C59.9778 25.646 59.4558 28.652 58.4118 31.604C57.4038 34.556 55.7658 37.022 53.4978 39.002C51.2298 40.946 48.3138 41.918 44.7498 41.918C42.8058 41.918 41.0958 41.648 39.6198 41.108L37.9998 52.124L29.6298 53.042L35.2998 12.326ZM44.1558 35.708C45.8118 35.708 47.1798 35.042 48.2598 33.71C49.3398 32.378 50.1318 30.722 50.6358 28.742C51.1398 26.726 51.3918 24.728 51.3918 22.748C51.3918 20.876 51.0858 19.562 50.4738 18.806C49.8618 18.05 49.0158 17.672 47.9358 17.672C46.0278 17.672 44.2098 18.77 42.4818 20.966L40.5378 35.006C41.7258 35.474 42.9318 35.708 44.1558 35.708ZM83.4708 11.408C85.5228 11.408 87.1248 12.02 88.2768 13.244C89.4288 14.468 90.0048 16.178 90.0048 18.374C90.0048 19.166 89.9688 19.778 89.8968 20.21L86.9808 41H78.6108L81.2568 22.046C81.3288 21.326 81.3648 20.858 81.3648 20.642C81.3648 19.814 81.2208 19.238 80.9328 18.914C80.6448 18.554 80.2128 18.374 79.6368 18.374C77.6568 18.374 75.5148 20.66 73.2108 25.232L70.9968 41H62.6268L68.2428 0.931998L76.7208 0.0679991L74.3448 17.132C75.3888 15.404 76.7028 14.018 78.2868 12.974C79.9068 11.93 81.6348 11.408 83.4708 11.408ZM112.597 11.516C113.533 11.516 114.487 11.66 115.459 11.948L113.029 20.156C112.021 19.904 111.229 19.778 110.653 19.778C108.997 19.778 107.611 20.462 106.495 21.83C105.415 23.198 104.443 25.16 103.579 27.716L101.689 41H93.3194L97.3154 12.326H104.605L104.497 17.672C105.469 15.692 106.657 14.18 108.061 13.136C109.501 12.056 111.013 11.516 112.597 11.516ZM134.338 11.408C137.182 11.408 139.36 12.38 140.872 14.324C142.384 16.268 143.14 19.022 143.14 22.586C143.14 25.718 142.618 28.742 141.574 31.658C140.566 34.574 138.82 37.022 136.336 39.002C133.852 40.946 130.54 41.918 126.4 41.918C124.384 41.918 122.422 41.72 120.514 41.324C118.606 40.928 116.644 40.334 114.628 39.542L120.028 0.931998L128.506 0.0139966L126.454 14.756C127.534 13.712 128.758 12.902 130.126 12.326C131.494 11.714 132.898 11.408 134.338 11.408ZM131.098 17.672C129.154 17.672 127.318 18.77 125.59 20.966L123.646 35.006C124.87 35.474 126.076 35.708 127.264 35.708C128.92 35.708 130.288 35.042 131.368 33.71C132.484 32.378 133.276 30.722 133.744 28.742C134.248 26.726 134.5 24.728 134.5 22.748C134.5 20.876 134.194 19.562 133.582 18.806C132.97 18.05 132.142 17.672 131.098 17.672ZM159.127 11.408C163.231 11.408 166.741 12.632 169.657 15.08L165.931 19.67C164.887 18.95 163.771 18.41 162.583 18.05C161.431 17.654 160.297 17.456 159.181 17.456C157.957 17.456 157.003 17.672 156.319 18.104C155.671 18.536 155.347 19.112 155.347 19.832C155.347 20.336 155.491 20.75 155.779 21.074C156.103 21.398 156.625 21.722 157.345 22.046C158.101 22.334 159.289 22.73 160.909 23.234C163.393 24.026 165.247 25.124 166.471 26.528C167.731 27.932 168.361 29.732 168.361 31.928C168.361 33.764 167.893 35.438 166.957 36.95C166.021 38.462 164.581 39.668 162.637 40.568C160.693 41.468 158.317 41.918 155.509 41.918C153.025 41.918 150.739 41.486 148.651 40.622C146.563 39.758 144.871 38.624 143.575 37.22L147.841 32.792C150.109 34.808 152.683 35.816 155.563 35.816C157.003 35.816 158.101 35.546 158.857 35.006C159.613 34.466 159.991 33.782 159.991 32.954C159.991 32.306 159.829 31.802 159.505 31.442C159.217 31.046 158.695 30.686 157.939 30.362C157.183 30.002 155.977 29.534 154.321 28.958C151.801 28.094 149.947 27.014 148.759 25.718C147.607 24.422 147.031 22.73 147.031 20.642C147.031 18.95 147.499 17.42 148.435 16.052C149.371 14.648 150.757 13.532 152.593 12.704C154.429 11.84 156.607 11.408 159.127 11.408Z" fill="black"/>
</svg>
